<?xml version="1.0" encoding="UTF-8" standalone="no"?>
<!-- Created with Inkscape (http://www.inkscape.org/) -->

<svg
   version="1.0"
   width="100%"
   height="100%"
   viewBox="-5 -5 100 100"
   id="svg2"
   sodipodi:docname="denkmalschens_sym.svg"
   xml:space="preserve"
   inkscape:version="1.2.1 (9c6d41e410, 2022-07-14)"
   xmlns:inkscape="http://www.inkscape.org/namespaces/inkscape"
   xmlns:sodipodi="http://sodipodi.sourceforge.net/DTD/sodipodi-0.dtd"
   xmlns="http://www.w3.org/2000/svg"
   xmlns:svg="http://www.w3.org/2000/svg"><sodipodi:namedview
     id="namedview1063"
     pagecolor="#ffffff"
     bordercolor="#000000"
     borderopacity="0.25"
     inkscape:showpageshadow="2"
     inkscape:pageopacity="0.0"
     inkscape:pagecheckerboard="0"
     inkscape:deskcolor="#d1d1d1"
     showgrid="false"
     inkscape:zoom="7.42"
     inkscape:cx="49.797844"
     inkscape:cy="50"
     inkscape:window-width="1680"
     inkscape:window-height="987"
     inkscape:window-x="-8"
     inkscape:window-y="-8"
     inkscape:window-maximized="1"
     inkscape:current-layer="svg2" /><defs
     id="defs4"><style
       type="text/css"
       id="style6" /></defs><circle
     style="fill:#ffffff;stroke:#000000;stroke-width:2.64567;stroke-dasharray:none;stroke-opacity:1"
     id="path1584"
     cx="42.964962"
     cy="45.795147"
     r="24.352476" /><path
     d="M 35.660191,57.340504 V 34.999537 h 7.695899 q 2.605938,0 3.977485,0.320027 1.920165,0.441943 3.276472,1.600138 1.767771,1.493461 2.636417,3.82509 0.883885,2.31639 0.883885,5.303313 0,2.544981 -0.594336,4.510864 -0.594337,1.965883 -1.523941,3.261232 -0.929604,1.28011 -2.04208,2.026841 -1.097237,0.731491 -2.666896,1.112477 -1.554419,0.380985 -3.58126,0.380985 z m 2.956445,-2.636417 h 4.769933 q 2.209714,0 3.459345,-0.411464 1.264871,-0.411464 2.011601,-1.158195 1.051519,-1.051519 1.630617,-2.81929 0.594336,-1.78301 0.594336,-4.312751 0,-3.505063 -1.158194,-5.37951 -1.142956,-1.889686 -2.788811,-2.529741 -1.188674,-0.457182 -3.825091,-0.457182 h -4.693736 z"
     id="path4064"
     style="font-size:31.2103px;font-family:Arial;-inkscape-font-specification:Arial;display:inline;opacity:0.829352;stroke:#000000;stroke-width:0.377953" /></svg>
