<?xml version="1.0" encoding="UTF-8" standalone="no"?>
<!-- Created with Inkscape (http://www.inkscape.org/) -->

<svg
   version="1.0"
   width="100%"
   height="100%"
   viewBox="-4.5 -3 100 100"
   id="svg2"
   xml:space="preserve"
   xmlns="http://www.w3.org/2000/svg"
   xmlns:svg="http://www.w3.org/2000/svg"><defs
     id="defs4"><style
       type="text/css"
       id="style6-2" /><symbol
       id="SymbolKirche"
       style="overflow:visible"><rect
         width="9"
         height="6"
         x="-4.5"
         y="-3"
         id="rect9-9"
         style="fill:#000000;stroke:none" /><path
         d="M -2.25,-1.125 L -1.375,-1.125 L -0.875,-1.625 L -0.875,-2.5 L 1.125,-2.5 L 1.125,-1.625 L 1.625,-1.125 L 2.5,-1.125 L 2.5,0.875 L 1.625,0.875 L 1.125,1.375 L 1.125,2.25 L -0.875,2.25 L -0.875,1.375 L -1.375,0.875 L -2.25,0.875 L -2.25,-1.125 z"
         id="path11-73"
         style="fill:#ffffff;stroke:none" /></symbol></defs><rect
     style="display:inline;fill:#000000;stroke-width:1.02369"
     id="rect333"
     width="99.917465"
     height="61.302216"
     x="-4.2597861"
     y="19.23587" /><path
     d="m 34.151381,22.69823 h 22.843425 v 10.400255 l 5.664425,5.66443 h 10.307401 v 22.936278 h -10.21454 l -5.571568,5.571571 V 77.485311 H 33.965661 V 67.456483 L 28.115515,61.606335 H 18.365272 V 38.670056 h 9.843102 l 6.221585,-6.221587 z"
     id="path2385"
     style="fill:#ffffff;fill-rule:evenodd;stroke:none;stroke-width:11.4939px;stroke-linecap:butt;stroke-linejoin:miter;stroke-opacity:1" /></svg>
