<?xml version="1.0" encoding="UTF-8" standalone="no"?>
<!-- Created with Inkscape (http://www.inkscape.org/) -->
<svg
   xmlns:svg="http://www.w3.org/2000/svg"
   xmlns="http://www.w3.org/2000/svg"
   version="1.0"
   width="100%"
   height="100%"
   viewBox="-4.5 -3 100 100"
   id="svg2">
  <defs
     id="defs4">
    <style
       type="text/css"
       id="style6" />
    <symbol
       id="SymbolKirche"
       style="overflow:visible">
      <rect
         width="9"
         height="6"
         x="-4.5"
         y="-3"
         id="rect9"
         style="fill:#000000;stroke:none" />
      <path
         d="M -2.25,-1.125 L -1.375,-1.125 L -0.875,-1.625 L -0.875,-2.5 L 1.125,-2.5 L 1.125,-1.625 L 1.625,-1.125 L 2.5,-1.125 L 2.5,0.875 L 1.625,0.875 L 1.125,1.375 L 1.125,2.25 L -0.875,2.25 L -0.875,1.375 L -1.375,0.875 L -2.25,0.875 L -2.25,-1.125 z"
         id="path11"
         style="fill:#ffffff;stroke:none" />
    </symbol>
  </defs>
  <path
     d="M 28.134888,5.8697469 L 62.56259,5.8697469 L 62.56259,21.544141 L 71.099538,30.081096 L 86.633988,30.081096 L 86.633988,64.648735 L 71.239489,64.648735 L 62.842489,73.045741 L 62.842489,88.440252 L 27.854988,88.440252 L 27.854988,73.325641 L 19.038138,64.508786 L 4.3433872,64.508786 L 4.3433872,29.941146 L 19.178087,29.941146 L 28.554738,20.56449 L 28.134888,5.8697469 z"
     id="path2385"
     style="fill:none;fill-rule:evenodd;stroke:#000000;stroke-width:17.32269859px;stroke-linecap:butt;stroke-linejoin:miter;stroke-opacity:1" />
</svg>
