<?xml version="1.0" encoding="UTF-8" standalone="no"?>
<!--
  #%L
  xplan-workspaces - Modul zur Gruppierung aller Workspaces
  %%
  Copyright (C) 2008 - 2023 Freie und Hansestadt Hamburg, developed by lat/lon gesellschaft für raumbezogene Informationssysteme mbH
  %%
  This program is free software: you can redistribute it and/or modify
  it under the terms of the GNU Affero General Public License as published by
  the Free Software Foundation, either version 3 of the License, or
  (at your option) any later version.
  
  This program is distributed in the hope that it will be useful,
  but WITHOUT ANY WARRANTY; without even the implied warranty of
  MERCHANTABILITY or FITNESS FOR A PARTICULAR PURPOSE.  See the
  GNU General Public License for more details.
  
  You should have received a copy of the GNU Affero General Public License
  along with this program.  If not, see <http://www.gnu.org/licenses/>.
  #L%
  -->

<!-- Created with Inkscape (http://www.inkscape.org/) -->

<svg
   version="1.0"
   width="100%"
   height="100%"
   viewBox="-5.5 -3.5 100 100"
   id="svg2"
   xmlns="http://www.w3.org/2000/svg"
   xmlns:svg="http://www.w3.org/2000/svg">
  <defs
     id="defs4">
    <style
       type="text/css"
       id="style6" />
  </defs>
  <g
     id="use17"
     transform="matrix(9.4827453,0,0,9.4827453,44.5,46.5)">
    <path
       id="rect13"
       style="fill:none;stroke:#000000;stroke-width:0.5"
       d="M -5,-3 H 5 V 3 H -5 Z" />
    <path
       d="M -3.5,-0.2 -3,0 h 6 l 0.8,-0.8"
       id="path15"
       style="fill:none;stroke:#000000;stroke-width:0.5" />
    <path
       id="circle17"
       style="fill:none;stroke:#000000;stroke-width:0.3"
       d="M -1.2,0.60000002 A 0.30000001,0.30000001 0 0 1 -1.5,0.90000004 0.30000001,0.30000001 0 0 1 -1.8,0.60000002 0.30000001,0.30000001 0 0 1 -1.5,0.30000001 0.30000001,0.30000001 0 0 1 -1.2,0.60000002 Z" />
    <path
       id="circle19"
       style="fill:none;stroke:#000000;stroke-width:0.3"
       d="M 1.8,0.60000002 A 0.30000001,0.30000001 0 0 1 1.5,0.90000004 0.30000001,0.30000001 0 0 1 1.2,0.60000002 0.30000001,0.30000001 0 0 1 1.5,0.30000001 0.30000001,0.30000001 0 0 1 1.8,0.60000002 Z" />
  </g>
</svg>
