<?xml version="1.0" encoding="UTF-8" standalone="no"?>
<!--
  #%L
  xplan-workspaces - Modul zur Gruppierung aller Workspaces
  %%
  Copyright (C) 2008 - 2023 Freie und Hansestadt Hamburg, developed by lat/lon gesellschaft für raumbezogene Informationssysteme mbH
  %%
  This program is free software: you can redistribute it and/or modify
  it under the terms of the GNU Affero General Public License as published by
  the Free Software Foundation, either version 3 of the License, or
  (at your option) any later version.
  
  This program is distributed in the hope that it will be useful,
  but WITHOUT ANY WARRANTY; without even the implied warranty of
  MERCHANTABILITY or FITNESS FOR A PARTICULAR PURPOSE.  See the
  GNU General Public License for more details.
  
  You should have received a copy of the GNU Affero General Public License
  along with this program.  If not, see <http://www.gnu.org/licenses/>.
  #L%
  -->

<!-- Created with Inkscape (http://www.inkscape.org/) -->

<svg
   version="1.0"
   width="100%"
   height="100%"
   viewBox="-5 -3.5 100 100"
   id="svg2"
   xmlns="http://www.w3.org/2000/svg"
   xmlns:svg="http://www.w3.org/2000/svg">
  <defs
     id="defs4">
    <style
       type="text/css"
       id="style6" />
  </defs>
  <g
     id="use13"
     transform="matrix(9.5317647,0,0,9.5317647,44.609049,46.5)">
    <g
       aria-label="EGar"
       id="text10"
       style="font-weight:100;font-size:4px;text-anchor:middle">
      <path
         d="m -4.375,-1.4160156 h 1.6484375 v 0.1621094 h -1.4492187 v 1.11914058 h 1.3886718 V 0.0234375 h -1.3886718 v 1.3183594 h 1.4843749 V 1.5 H -4.375 Z"
         id="path14" />
      <path
         d="M 0.14648437,1.2519531 V 0.23046875 H -0.59765625 V 0.0703125 h 0.9375 V 1.3457031 Q 0.13085937,1.4492187 -0.11914062,1.5 q -0.25000001,0.052734 -0.53515625,0.056641 -0.63281253,0 -0.98828123,-0.4003906 Q -2,0.7578125 -2,0.04492187 -2,-0.66992187 -1.6425781,-1.0703125 -1.2871094,-1.46875 -0.65429687,-1.46875 q 0.26171874,0 0.49414062,0.052734 0.234375,0.056641 0.4296875,0.1660156 v 0.1894531 q -0.19726563,-0.109375 -0.421875,-0.1660156 -0.22265625,-0.054687 -0.46875,-0.054687 -0.58789065,0 -0.88281245,0.33398437 -0.2949219,0.33203126 -0.2949219,0.9921875 0,0.66992188 0.2949219,1.00781253 0.2949218,0.3398437 0.88281245,0.3398437 0.24023437,0 0.4296875,-0.033203 0.1875,-0.035156 0.33789062,-0.1074219 z"
         id="path16" />
      <path
         d="m 2.09375,0.265625 q -0.4335938,0 -0.625,0.15429688 -0.1914063,0.15429687 -0.1914063,0.45117187 0,0.28906245 0.1582032,0.41015625 0.1582031,0.1210937 0.375,0.1210937 0.4101562,0 0.5898437,-0.3476562 Q 2.5820313,0.70703125 2.5820313,0.40039063 V 0.265625 Z M 2.7636719,0.25195313 V 1.5 H 2.5859375 V 0.90625 Q 2.4355469,1.3417969 2.1875,1.4609375 1.9902344,1.5566406 1.7949219,1.5566406 1.46875,1.5566406 1.28125,1.3828125 1.09375,1.2070312 1.09375,0.8671875 1.09375,0.52734375 1.3378906,0.32421875 1.5820312,0.11914062 2.1367188,0.11914062 H 2.5820313 V 0.08398437 q 0,-0.29101562 -0.1660157,-0.47851562 -0.1640625,-0.1875 -0.5429687,-0.1875 -0.1875,0 -0.3828125,0.0703125 -0.125,0.0449219 -0.3242188,0.18164062 V -0.5234375 q 0.1738281,-0.10742187 0.3242188,-0.15234375 0.21875,-0.0644531 0.4199218,-0.0644531 0.3867188,0 0.6367188,0.234375 0.2167969,0.20117187 0.2167969,0.7578125 z"
         id="path18" />
      <path
         d="m 4.8574219,-0.53320312 q -0.042969,-0.0214844 -0.1171875,-0.0371094 -0.066406,-0.0117188 -0.1679688,-0.0117188 -0.3320312,0 -0.5507812,0.24609375 -0.171875,0.19921875 -0.171875,0.68359375 V 1.5 H 3.6738281 v -2.1875 h 0.1757813 v 0.41015625 q 0.087891,-0.17578125 0.2460937,-0.296875 0.21875,-0.16601562 0.515625,-0.16601562 0.076172,0 0.1328125,0.005859 0.058594,0 0.1132813,0.0136719 z"
         id="path20" />
    </g>
  </g>
</svg>
