<?xml version="1.0" encoding="UTF-8" standalone="no"?>
<!--
  #%L
  xplan-workspaces - Modul zur Gruppierung aller Workspaces
  %%
  Copyright (C) 2008 - 2023 Freie und Hansestadt Hamburg, developed by lat/lon gesellschaft für raumbezogene Informationssysteme mbH
  %%
  This program is free software: you can redistribute it and/or modify
  it under the terms of the GNU Affero General Public License as published by
  the Free Software Foundation, either version 3 of the License, or
  (at your option) any later version.
  
  This program is distributed in the hope that it will be useful,
  but WITHOUT ANY WARRANTY; without even the implied warranty of
  MERCHANTABILITY or FITNESS FOR A PARTICULAR PURPOSE.  See the
  GNU General Public License for more details.
  
  You should have received a copy of the GNU Affero General Public License
  along with this program.  If not, see <http://www.gnu.org/licenses/>.
  #L%
  -->

<svg
   version="1.0"
   width="100%"
   height="100%"
   viewBox="-5 -5 100 100"
   id="svg2"
   xmlns="http://www.w3.org/2000/svg"
   xmlns:svg="http://www.w3.org/2000/svg"
   xmlns:rdf="http://www.w3.org/1999/02/22-rdf-syntax-ns#"
   xmlns:cc="http://creativecommons.org/ns#"
   xmlns:dc="http://purl.org/dc/elements/1.1/">
  <metadata
     id="metadata10">
    <rdf:RDF>
      <cc:Work
         rdf:about="">
        <dc:format>image/svg+xml</dc:format>
        <dc:type
           rdf:resource="http://purl.org/dc/dcmitype/StillImage" />
      </cc:Work>
    </rdf:RDF>
  </metadata>
  <defs
     id="defs4">
    <style
       type="text/css"
       id="style6" />
  </defs>
  <g
     id="use13"
     transform="matrix(10.482208,0,0,10.482208,43.781853,44.518883)"
     style="stroke-width:0.1907995;stroke-miterlimit:4;stroke-dasharray:none">
    <g
       aria-label="LB"
       id="text857"
       style="font-weight:100;font-size:4px;text-anchor:middle;fill:#000000;stroke:none;stroke-width:0.1907995;stroke-miterlimit:4;stroke-dasharray:none">
      <path
         d="M -0.25390625,1.5 H -2.09375 v -2.9082031 h 0.3867188 V 1.15625 h 1.45312495 z"
         style="font-weight:100;font-size:4px;text-anchor:middle;fill:#000000;stroke:none;stroke-width:0.1907995;stroke-miterlimit:4;stroke-dasharray:none"
         id="path861" />
      <path
         d="m 2.3261719,0.60546875 q 0,0.21679688 -0.082031,0.3828125 Q 2.1621094,1.1542969 2.0234375,1.2617187 1.859375,1.390625 1.6621094,1.4453125 1.4667969,1.5 1.1640625,1.5 h -1.03125 v -2.9082031 h 0.86132813 q 0.31835937,0 0.47656247,0.023437 0.1582031,0.023437 0.3027344,0.097656 0.1601562,0.083984 0.2324219,0.2167969 0.072266,0.13085937 0.072266,0.31445313 0,0.20703125 -0.1054688,0.35351562 -0.1054687,0.14453125 -0.28125,0.23242188 v 0.015625 Q 1.9863281,-0.09375 2.15625,0.10546875 q 0.1699219,0.19726563 0.1699219,0.5 z M 1.6757812,-0.70507812 q 0,-0.10546876 -0.035156,-0.17773438 Q 1.6054687,-0.95507813 1.5273437,-1 1.4355469,-1.0527344 1.3046875,-1.0644531 1.1738281,-1.078125 0.98046875,-1.078125 h -0.4609375 v 0.83984375 H 1.0195312 q 0.1816407,0 0.2890625,-0.0175781 0.1074219,-0.0195313 0.1992188,-0.078125 0.091797,-0.0585938 0.1289062,-0.15039062 0.039063,-0.09375 0.039063,-0.22070315 z m 0.2480469,1.32617187 q 0,-0.17578125 -0.052734,-0.27929687 -0.052734,-0.10351563 -0.1914062,-0.17578126 -0.09375,-0.0488281 -0.2285156,-0.0625 -0.1328125,-0.015625 -0.3242188,-0.015625 H 0.51953125 V 1.1699219 H 1.03125 q 0.2539062,0 0.4160156,-0.025391 0.1621094,-0.027344 0.265625,-0.097656 0.109375,-0.0761719 0.1601563,-0.17382812 0.050781,-0.0976563 0.050781,-0.25195303 z"
         style="font-weight:100;font-size:4px;text-anchor:middle;fill:#000000;stroke:none;stroke-width:0.1907995;stroke-miterlimit:4;stroke-dasharray:none"
         id="path863" />
    </g>
  </g>
  <path
     id="path883-4"
     style="fill:none;fill-rule:evenodd;stroke:#000000;stroke-width:4;stroke-miterlimit:4;stroke-dasharray:none"
     d="M 86.496978,44.999999 A 41.496976,41.496976 0 0 1 44.999998,86.496977 41.496976,41.496976 0 0 1 3.503022,44.999999 41.496976,41.496976 0 0 1 44.999998,3.5030232 41.496976,41.496976 0 0 1 86.496978,44.999999 Z" />
</svg>
