<?xml version="1.0" encoding="UTF-8" standalone="no"?>
<svg
   xmlns:dc="http://purl.org/dc/elements/1.1/"
   xmlns:cc="http://creativecommons.org/ns#"
   xmlns:rdf="http://www.w3.org/1999/02/22-rdf-syntax-ns#"
   xmlns:svg="http://www.w3.org/2000/svg"
   xmlns="http://www.w3.org/2000/svg"
   xmlns:sodipodi="http://sodipodi.sourceforge.net/DTD/sodipodi-0.dtd"
   xmlns:inkscape="http://www.inkscape.org/namespaces/inkscape"
   version="1.0"
   width="100%"
   height="100%"
   viewBox="-5 -5 100 100"
   id="svg2"
   sodipodi:docname="schutzgebnaturdenk_sym.svg"
   inkscape:version="1.0.2-2 (e86c870879, 2021-01-15)">
  <metadata
     id="metadata10">
    <rdf:RDF>
      <cc:Work
         rdf:about="">
        <dc:format>image/svg+xml</dc:format>
        <dc:type
           rdf:resource="http://purl.org/dc/dcmitype/StillImage" />
      </cc:Work>
    </rdf:RDF>
  </metadata>
  <sodipodi:namedview
     pagecolor="#ffffff"
     bordercolor="#666666"
     borderopacity="1"
     objecttolerance="10"
     gridtolerance="10"
     guidetolerance="10"
     inkscape:pageopacity="0"
     inkscape:pageshadow="2"
     inkscape:window-width="1920"
     inkscape:window-height="1017"
     id="namedview8"
     showgrid="false"
     inkscape:zoom="4.25"
     inkscape:cx="50.793939"
     inkscape:cy="55.273483"
     inkscape:window-x="1912"
     inkscape:window-y="-8"
     inkscape:window-maximized="1"
     inkscape:current-layer="svg2"
     inkscape:document-rotation="0" />
  <defs
     id="defs4">
    <style
       type="text/css"
       id="style6" />
  </defs>
  <g
     id="use13"
     transform="matrix(10.460899,0,0,10.460899,44.939271,44.939271)"
     style="stroke-width:0.19118816;stroke-miterlimit:4;stroke-dasharray:none">
    <g
       aria-label="ND"
       id="text857"
       style="font-weight:100;font-size:4px;text-anchor:middle;fill:#000000;stroke:none;stroke-width:0.19118816;stroke-miterlimit:4;stroke-dasharray:none">
      <path
         d="M -0.42773438,1.5 H -0.90625 L -2.2851563,-1.1015625 V 1.5 h -0.3613281 v -2.9082031 h 0.5996094 l 1.2578125,2.37499998 V -1.4082031 h 0.36132812 z"
         style="font-weight:100;font-size:4px;text-anchor:middle;fill:#000000;stroke:none;stroke-width:0.19118816;stroke-miterlimit:4;stroke-dasharray:none"
         id="path861" />
      <path
         d="m 2.8027344,0.04882812 q 0,0.39648438 -0.1738281,0.71875 Q 2.4570313,1.0898437 2.1699219,1.2675781 1.9707031,1.390625 1.7246094,1.4453125 1.4804687,1.5 1.0800781,1.5 H 0.34570313 V -1.4082031 H 1.0722656 q 0.4257813,0 0.6757813,0.0625 Q 2,-1.2851562 2.1738281,-1.1777344 2.4707031,-0.9921875 2.6367188,-0.68359375 2.8027344,-0.375 2.8027344,0.04882812 Z M 2.3984375,0.04296875 q 0,-0.34179688 -0.1191406,-0.57617187 Q 2.1601563,-0.76757812 1.9238281,-0.90234375 1.7519531,-1 1.5585937,-1.0371094 1.3652344,-1.0761719 1.0957031,-1.0761719 H 0.73242187 V 1.1679687 H 1.0957031 q 0.2792969,0 0.4863281,-0.041016 Q 1.7910156,1.0859375 1.9648437,0.97460938 2.1816406,0.8359375 2.2890625,0.609375 2.3984375,0.3828125 2.3984375,0.04296875 Z"
         style="font-weight:100;font-size:4px;text-anchor:middle;fill:#000000;stroke:none;stroke-width:0.19118816;stroke-miterlimit:4;stroke-dasharray:none"
         id="path863" />
    </g>
  </g>
  <path
     id="path883-4"
     style="fill:none;fill-rule:evenodd;stroke:#000000;stroke-width:4;stroke-miterlimit:4;stroke-dasharray:none"
     d="M 86.496977,44.999999 A 41.496976,41.496976 0 0 1 44.999999,86.496977 41.496976,41.496976 0 0 1 3.503023,44.999999 41.496976,41.496976 0 0 1 44.999999,3.503023 41.496976,41.496976 0 0 1 86.496977,44.999999 Z" />
</svg>
