<?xml version="1.0" encoding="UTF-8" standalone="no"?>
<!-- Created with Inkscape (http://www.inkscape.org/) -->

<svg
   version="1.0"
   width="100%"
   height="100%"
   viewBox="-4.5 -3 100 100"
   id="svg2"
   xml:space="preserve"
   xmlns="http://www.w3.org/2000/svg"
   xmlns:svg="http://www.w3.org/2000/svg"><defs
     id="defs4"><style
       type="text/css"
       id="style6" /><style
       type="text/css"
       id="style6-5" /><style
       type="text/css"
       id="style6-54" /><style
       type="text/css"
       id="style6-2" /><style
       type="text/css"
       id="style6-20" /><style
       type="text/css"
       id="style6-3" /><style
       type="text/css"
       id="style6-38" /><symbol
       id="SymbolSport"
       style="overflow:visible"><rect
         width="9"
         height="6"
         x="-4.5"
         y="-3"
         id="rect9"
         style="fill:#000000;stroke:none" /><path
         d="M 11,5 L 26,5 C 34,5 34,18 26,18 L 11,18 C 3,18 3,5 11,5"
         id="path11"
         style="fill:#ffffff;stroke:none" /><path
         d="M -2.25,-1.75 L 2,-1.75 C 4,-1.75 4,1.5 2,1.5 L -1.75,1.5 C -3.75,1.5 -3.75,-1.75 -1.75,-1.75"
         id="path13"
         style="fill:#ffffff;stroke:none" /></symbol></defs><rect
     style="display:inline;fill:#000000;stroke-width:1.02369"
     id="rect333"
     width="99.917465"
     height="61.302216"
     x="-4.2597861"
     y="19.23587" /><path
     d="m 17.619986,27.628107 h 54.79213 c 12.352498,0 18.410155,7.156945 18.410155,21.478515 0,13.215227 -5.933362,22.793527 -17.314313,22.793527 H 17.181649 c -11.43339,0 -17.09514536,-8.481954 -17.09514536,-21.259345 0,-12.207173 4.35871546,-23.012697 17.53348236,-23.012697 z"
     id="path2386"
     style="fill:#ffffff;fill-rule:evenodd;stroke:none;stroke-width:13.5641px;stroke-linecap:butt;stroke-linejoin:miter;stroke-opacity:1" /></svg>
