<?xml version="1.0" encoding="UTF-8" standalone="no"?>
<svg
   xmlns:dc="http://purl.org/dc/elements/1.1/"
   xmlns:cc="http://creativecommons.org/ns#"
   xmlns:rdf="http://www.w3.org/1999/02/22-rdf-syntax-ns#"
   xmlns:svg="http://www.w3.org/2000/svg"
   xmlns="http://www.w3.org/2000/svg"
   xmlns:sodipodi="http://sodipodi.sourceforge.net/DTD/sodipodi-0.dtd"
   xmlns:inkscape="http://www.inkscape.org/namespaces/inkscape"
   version="1.0"
   width="100%"
   height="100%"
   viewBox="-1.5 -4 100 100"
   id="svg2"
   sodipodi:docname="spispoanfl_rs.svg"
   inkscape:version="1.0.2-2 (e86c870879, 2021-01-15)">
  <metadata
     id="metadata11">
    <rdf:RDF>
      <cc:Work
         rdf:about="">
        <dc:format>image/svg+xml</dc:format>
        <dc:type
           rdf:resource="http://purl.org/dc/dcmitype/StillImage" />
      </cc:Work>
    </rdf:RDF>
  </metadata>
  <sodipodi:namedview
     pagecolor="#ffffff"
     bordercolor="#666666"
     borderopacity="1"
     objecttolerance="10"
     gridtolerance="10"
     guidetolerance="10"
     inkscape:pageopacity="0"
     inkscape:pageshadow="2"
     inkscape:window-width="1920"
     inkscape:window-height="986"
     id="namedview9"
     showgrid="true"
     inkscape:zoom="5.6568543"
     inkscape:cx="34.981512"
     inkscape:cy="50.344364"
     inkscape:window-x="-11"
     inkscape:window-y="-11"
     inkscape:window-maximized="1"
     inkscape:current-layer="use15">
    <inkscape:grid
       type="xygrid"
       id="grid836" />
  </sodipodi:namedview>
  <defs
     id="defs4">
    <style
       type="text/css"
       id="style6" />
    <symbol
       id="RsSpielanlage"
       style="overflow:visible">
      <circle
         cx="-0.30000001"
         cy="-1.5"
         r="0.5"
         id="circle9"
         style="fill:#000000;stroke:none" />
      <circle
         cx="0.30000001"
         cy="-3"
         r="0.5"
         id="circle11"
         style="fill:#000000;stroke:none" />
    </symbol>
  </defs>
  <g
     id="use15"
     transform="matrix(29.292515,0,0,28.226374,48.5,94.792309)">
    <path
       id="circle838"
       style="fill:#000000;stroke:none;stroke-width:1.39108"
       d="m -0.17069207,-0.84291057 a 0.6827683,0.70855716 0 0 1 -0.6827683,0.70855723 0.6827683,0.70855716 0 0 1 -0.68276823,-0.70855723 0.6827683,0.70855716 0 0 1 0.68276823,-0.70855713 0.6827683,0.70855716 0 0 1 0.6827683,0.70855713 z" />
    <path
       id="circle840"
       style="fill:#000000;stroke:none;stroke-width:1.39108"
       d="M 1.5362286,-2.6143035 A 0.68276828,0.70855718 0 0 1 0.85346026,-1.9057463 0.68276828,0.70855718 0 0 1 0.17069199,-2.6143035 0.68276828,0.70855718 0 0 1 0.85346026,-3.3228607 0.68276828,0.70855718 0 0 1 1.5362286,-2.6143035 Z" />
  </g>
</svg>
