<?xml version="1.0" encoding="UTF-8" standalone="no"?>
<!-- Created with Inkscape (http://www.inkscape.org/) -->
<svg
   xmlns:svg="http://www.w3.org/2000/svg"
   xmlns="http://www.w3.org/2000/svg"
   xmlns:xlink="http://www.w3.org/1999/xlink"
   version="1.0"
   width="100%"
   height="100%"
   viewBox="-15 -10 100 100"
   id="svg2">
  <defs
     id="defs4">
    <style
       type="text/css"
       id="style6" />
    <symbol
       id="Erhaltung_Straeucher"
       style="overflow:visible">
      <path
         d="M -4.242,-4.242 C -1.8990009,-6.5842916 1.8990009,-6.5842916 4.242,-4.242 C 6.3372472,-5.5493209 9.0731205,-5.1310621 10.682068,-3.2574461 C 12.291015,-1.3838301 12.291015,1.3838301 10.682068,3.2574461 C 9.0731205,5.1310621 6.3372472,5.5493209 4.242,4.242 C 1.8990009,6.5842916 -1.8990009,6.5842916 -4.242,4.242 C -6.3372472,5.5493209 -9.0731205,5.1310621 -10.682068,3.2574461 C -12.291015,1.3838301 -12.291015,-1.3838301 -10.682068,-3.2574461 C -9.0731205,-5.1310621 -6.3372472,-5.5493209 -4.242,-4.242"
         id="path9"
         style="font-size:4px;fill:#008000;stroke:#000000;stroke-width:0.5" />
      <circle
         cx="0"
         cy="0"
         r="0.80000001"
         id="circle11"
         style="font-size:4px;fill:#000000;stroke:#000000;stroke-width:0.5" />
    </symbol>
  </defs>
  <use
     transform="matrix(4.1017801,0,0,4.1017801,34.999998,39.999998)"
     id="use13"
     x="0"
     y="0"
     width="30"
     height="20"
     xlink:href="#Erhaltung_Straeucher" />
</svg>
