<?xml version="1.0" encoding="UTF-8" standalone="no"?>
<svg
   xmlns:dc="http://purl.org/dc/elements/1.1/"
   xmlns:cc="http://creativecommons.org/ns#"
   xmlns:rdf="http://www.w3.org/1999/02/22-rdf-syntax-ns#"
   xmlns:svg="http://www.w3.org/2000/svg"
   xmlns="http://www.w3.org/2000/svg"
   xmlns:sodipodi="http://sodipodi.sourceforge.net/DTD/sodipodi-0.dtd"
   xmlns:inkscape="http://www.inkscape.org/namespaces/inkscape"
   width="400"
   height="400"
   version="1.1"
   id="svg8901"
   sodipodi:docname="laermschutz.svg"
   inkscape:version="0.92.3 (2405546, 2018-03-11)">
  <metadata
     id="metadata8907">
    <rdf:RDF>
      <cc:Work
         rdf:about="">
        <dc:format>image/svg+xml</dc:format>
        <dc:type
           rdf:resource="http://purl.org/dc/dcmitype/StillImage" />
        <dc:title>SVG</dc:title>
      </cc:Work>
    </rdf:RDF>
  </metadata>
  <defs
     id="defs8905" />
  <sodipodi:namedview
     pagecolor="#ffffff"
     bordercolor="#666666"
     borderopacity="1"
     objecttolerance="10"
     gridtolerance="10"
     guidetolerance="10"
     inkscape:pageopacity="0"
     inkscape:pageshadow="2"
     inkscape:window-width="2509"
     inkscape:window-height="1385"
     id="namedview8903"
     showgrid="false"
     inkscape:zoom="1.18"
     inkscape:cx="157.40109"
     inkscape:cy="210.76894"
     inkscape:window-x="51"
     inkscape:window-y="27"
     inkscape:window-maximized="1"
     inkscape:current-layer="svg8901" />
  <title
     id="title8887">SVG</title>
  <style
     type="text/css"
     id="style8889"><![CDATA[
  text {font-size:60px; text-anchor:middle;}
 ]]></style>
  <g
     id="g965"
     transform="matrix(1.3304058,0,0,1.3304967,-66.111919,-65.854003)">
    <polygon
       style="fill:#000000;stroke:#000000;stroke-width:1px"
       transform="matrix(0.25062421,0,0,0.25062421,-0.37469061,300.125)"
       id="polygon8891"
       points="0,0 20,0 0,20 " />
    <polygon
       style="fill:#000000;stroke:#000000;stroke-width:1px"
       transform="matrix(0.25062421,0,0,0.25062421,-0.37469061,300.125)"
       id="polygon8895"
       points="400,0 400,20 20,400 0,400 0,380 380,0 " />
    <polygon
       style="fill:#000000;stroke:#000000;stroke-width:1px"
       transform="matrix(0.25062421,0,0,0.25062421,-0.37469061,300.125)"
       id="polygon8899"
       points="400,380 400,400 380,400 " />
    <polygon
       style="fill:#000000;stroke:#000000;stroke-width:1px"
       transform="matrix(0.25062421,0,0,0.25062421,99.874996,300.125)"
       id="polygon8891-3"
       points="0,20 0,0 20,0 " />
    <polygon
       style="fill:#000000;stroke:#000000;stroke-width:1px"
       transform="matrix(0.25062421,0,0,0.25062421,99.874996,300.125)"
       id="polygon8897-2"
       points="400,180 400,220 220,400 180,400 " />
    <polygon
       style="fill:#000000;stroke:#000000;stroke-width:1px"
       transform="matrix(0.25062421,0,0,0.25062421,-0.37469233,199.87531)"
       id="polygon8893-8"
       points="180,0 220,0 0,220 0,180 " />
    <polygon
       style="fill:#000000;stroke:#000000;stroke-width:1px"
       transform="matrix(0.25062421,0,0,0.25062421,-0.37469233,199.87531)"
       id="polygon8899-2"
       points="380,400 400,380 400,400 " />
    <polygon
       style="fill:#000000;stroke:#000000;stroke-width:1px"
       transform="matrix(0.25062421,0,0,0.25062421,99.874996,199.87531)"
       id="polygon8895-6-3"
       points="0,380 380,0 400,0 400,20 20,400 0,400 " />
    <polygon
       style="fill:#000000;stroke:#000000;stroke-width:1px"
       transform="matrix(0,0.25062421,-0.25062421,0,99.874994,199.87531)"
       id="polygon8893-6"
       points="0,220 0,180 180,0 220,0 " />
    <polygon
       style="fill:#000000;stroke:#000000;stroke-width:1px"
       transform="matrix(0,0.25062421,-0.25062421,0,99.874994,199.87531)"
       id="polygon8899-4"
       points="400,400 380,400 400,380 " />
    <polygon
       style="fill:#000000;stroke:#000000;stroke-width:1px"
       transform="matrix(0,0.25062421,-0.25062421,0,99.874994,300.12499)"
       id="polygon8891-3-3"
       points="0,0 20,0 0,20 " />
    <polygon
       style="fill:#000000;stroke:#000000;stroke-width:1px"
       transform="matrix(0,0.25062421,-0.25062421,0,99.874994,300.12499)"
       id="polygon8895-6-4"
       points="400,0 400,20 20,400 0,400 0,380 380,0 " />
    <polygon
       style="fill:#000000;stroke:#000000;stroke-width:1px"
       transform="matrix(0,0.25062421,-0.25062421,0,99.874994,300.12499)"
       id="polygon8899-9-2"
       points="400,380 400,400 380,400 " />
    <polygon
       style="fill:#000000;stroke:#000000;stroke-width:1px"
       transform="matrix(0,0.25062421,-0.25062421,0,200.12468,199.8753)"
       id="polygon8891-1-0"
       points="0,0 20,0 0,20 " />
    <polygon
       style="fill:#000000;stroke:#000000;stroke-width:1px"
       transform="matrix(0,0.25062421,-0.25062421,0,200.12468,199.8753)"
       id="polygon8897-9-9"
       points="180,400 400,180 400,220 220,400 " />
    <polygon
       style="fill:#000000;stroke:#000000;stroke-width:1px"
       transform="matrix(0,0.25062421,-0.25062421,0,200.12468,199.8753)"
       id="polygon8899-2-2"
       points="400,380 400,400 380,400 " />
    <polygon
       style="fill:#000000;stroke:#000000;stroke-width:1px"
       transform="matrix(0,0.25062421,-0.25062421,0,200.12468,300.12499)"
       id="polygon8893-5-2-6"
       points="180,0 220,0 0,220 0,180 " />
    <polygon
       style="fill:#000000;stroke:#000000;stroke-width:1px"
       transform="matrix(0,0.25062421,-0.25062421,0,200.12468,300.12499)"
       id="polygon8899-9-5-5"
       points="380,400 400,380 400,400 " />
    <polygon
       style="fill:#000000;stroke:#000000;stroke-width:1px"
       transform="matrix(0.25062421,0,0,0.25062421,200.12468,300.12499)"
       id="polygon8893-7"
       points="180,0 220,0 0,220 0,180 " />
    <polygon
       style="fill:#000000;stroke:#000000;stroke-width:1px"
       transform="matrix(0.25062421,0,0,0.25062421,200.12468,300.12499)"
       id="polygon8899-5"
       points="380,400 400,380 400,400 " />
    <polygon
       style="fill:#000000;stroke:#000000;stroke-width:1px"
       transform="matrix(0.25062421,0,0,0.25062421,300.37437,300.12499)"
       id="polygon8891-3-6"
       points="20,0 0,20 0,0 " />
    <polygon
       style="fill:#000000;stroke:#000000;stroke-width:1px"
       transform="matrix(0.25062421,0,0,0.25062421,300.37437,300.12499)"
       id="polygon8895-6-1"
       points="0,380 380,0 400,0 400,20 20,400 0,400 " />
    <polygon
       style="fill:#000000;stroke:#000000;stroke-width:1px"
       transform="matrix(0.25062421,0,0,0.25062421,300.37437,300.12499)"
       id="polygon8899-9-7"
       points="400,400 380,400 400,380 " />
    <polygon
       style="fill:#000000;stroke:#000000;stroke-width:1px"
       transform="matrix(0.25062421,0,0,0.25062421,200.12468,199.8753)"
       id="polygon8891-1-09"
       points="20,0 0,20 0,0 " />
    <polygon
       style="fill:#000000;stroke:#000000;stroke-width:1px"
       transform="matrix(0.25062421,0,0,0.25062421,200.12468,199.8753)"
       id="polygon8897-9-0"
       points="400,220 220,400 180,400 400,180 " />
    <polygon
       style="fill:#000000;stroke:#000000;stroke-width:1px"
       transform="matrix(0.25062421,0,0,0.25062421,200.12468,199.8753)"
       id="polygon8899-2-6"
       points="400,400 380,400 400,380 " />
    <polygon
       style="fill:#000000;stroke:#000000;stroke-width:1px"
       transform="matrix(0.25062421,0,0,0.25062421,300.37437,199.8753)"
       id="polygon8893-5-2-61"
       points="0,220 0,180 180,0 220,0 " />
    <polygon
       style="fill:#000000;stroke:#000000;stroke-width:1px"
       transform="matrix(0.25062421,0,0,0.25062421,300.37437,199.8753)"
       id="polygon8899-9-5-9"
       points="400,380 400,400 380,400 " />
    <polygon
       style="fill:#000000;stroke:#000000;stroke-width:1px"
       transform="matrix(0,0.25062421,-0.25062421,0,300.37436,199.8753)"
       id="polygon8895-8-3"
       points="400,0 400,20 20,400 0,400 0,380 380,0 " />
    <polygon
       style="fill:#000000;stroke:#000000;stroke-width:1px"
       transform="matrix(0,0.25062421,-0.25062421,0,300.37436,300.12498)"
       id="polygon8891-3-3-9"
       points="0,20 0,0 20,0 " />
    <polygon
       style="fill:#000000;stroke:#000000;stroke-width:1px"
       transform="matrix(0,0.25062421,-0.25062421,0,300.37436,300.12498)"
       id="polygon8897-2-9-8"
       points="400,180 400,220 220,400 180,400 " />
    <polygon
       style="fill:#000000;stroke:#000000;stroke-width:1px"
       transform="matrix(0,0.25062421,-0.25062421,0,400.62405,199.87529)"
       id="polygon8893-8-6-3"
       points="180,0 220,0 0,220 0,180 " />
    <polygon
       style="fill:#000000;stroke:#000000;stroke-width:1px"
       transform="matrix(0,0.25062421,-0.25062421,0,400.62405,199.87529)"
       id="polygon8899-2-2-2"
       points="380,400 400,380 400,400 " />
    <polygon
       style="fill:#000000;stroke:#000000;stroke-width:1px"
       transform="matrix(0,0.25062421,-0.25062421,0,400.62405,300.12498)"
       id="polygon8891-3-0-6-9"
       points="20,0 0,20 0,0 " />
    <polygon
       style="fill:#000000;stroke:#000000;stroke-width:1px"
       transform="matrix(0,0.25062421,-0.25062421,0,400.62405,300.12498)"
       id="polygon8895-6-3-4-1"
       points="0,380 380,0 400,0 400,20 20,400 0,400 " />
    <polygon
       style="fill:#000000;stroke:#000000;stroke-width:1px"
       transform="matrix(0,0.25062421,-0.25062421,0,400.62405,300.12498)"
       id="polygon8899-9-5-5-4"
       points="400,400 380,400 400,380 " />
    <polygon
       style="fill:#000000;stroke:#000000;stroke-width:1px"
       transform="matrix(0.25062421,0,0,0.25062421,-0.37469117,99.625622)"
       id="polygon8891-84"
       points="0,20 0,0 20,0 " />
    <polygon
       style="fill:#000000;stroke:#000000;stroke-width:1px"
       transform="matrix(0.25062421,0,0,0.25062421,-0.37469117,99.625622)"
       id="polygon8897-6"
       points="400,180 400,220 220,400 180,400 " />
    <polygon
       style="fill:#000000;stroke:#000000;stroke-width:1px"
       transform="matrix(0.25062421,0,0,0.25062421,99.874996,99.625622)"
       id="polygon8891-3-06"
       points="20,0 0,20 0,0 " />
    <polygon
       style="fill:#000000;stroke:#000000;stroke-width:1px"
       transform="matrix(0.25062421,0,0,0.25062421,99.874996,99.625622)"
       id="polygon8893-5-3"
       points="220,0 0,220 0,180 180,0 " />
    <polygon
       style="fill:#000000;stroke:#000000;stroke-width:1px"
       transform="matrix(0.25062421,0,0,0.25062421,99.874996,99.625622)"
       id="polygon8899-9-6"
       points="400,400 380,400 400,380 " />
    <polygon
       style="fill:#000000;stroke:#000000;stroke-width:1px"
       transform="matrix(0.25062421,0,0,0.25062421,-0.37469289,-0.62406247)"
       id="polygon8891-1-1"
       points="20,0 0,20 0,0 " />
    <polygon
       style="fill:#000000;stroke:#000000;stroke-width:1px"
       transform="matrix(0.25062421,0,0,0.25062421,-0.37469289,-0.62406247)"
       id="polygon8895-7-5"
       points="0,380 380,0 400,0 400,20 20,400 0,400 " />
    <polygon
       style="fill:#000000;stroke:#000000;stroke-width:1px"
       transform="matrix(0.25062421,0,0,0.25062421,-0.37469289,-0.62406247)"
       id="polygon8899-2-7"
       points="400,400 380,400 400,380 " />
    <polygon
       style="fill:#000000;stroke:#000000;stroke-width:1px"
       transform="matrix(0.25062421,0,0,0.25062421,99.874996,-0.62406247)"
       id="polygon8891-3-0-65"
       points="0,0 20,0 0,20 " />
    <polygon
       style="fill:#000000;stroke:#000000;stroke-width:1px"
       transform="matrix(0.25062421,0,0,0.25062421,99.874996,-0.62406247)"
       id="polygon8897-2-7-74"
       points="220,400 180,400 400,180 400,220 " />
    <polygon
       style="fill:#000000;stroke:#000000;stroke-width:1px"
       transform="matrix(0,0.25062421,-0.25062421,0,99.874994,-0.62407294)"
       id="polygon8891-8-4"
       points="0,0 20,0 0,20 " />
    <polygon
       style="fill:#000000;stroke:#000000;stroke-width:1px"
       transform="matrix(0,0.25062421,-0.25062421,0,99.874994,-0.62407294)"
       id="polygon8895-8-4"
       points="400,0 400,20 20,400 0,400 0,380 380,0 " />
    <polygon
       style="fill:#000000;stroke:#000000;stroke-width:1px"
       transform="matrix(0,0.25062421,-0.25062421,0,99.874994,-0.62407294)"
       id="polygon8899-4-3"
       points="400,380 400,400 380,400 " />
    <polygon
       style="fill:#000000;stroke:#000000;stroke-width:1px"
       transform="matrix(0,0.25062421,-0.25062421,0,99.874994,99.625611)"
       id="polygon8891-3-3-0"
       points="0,20 0,0 20,0 " />
    <polygon
       style="fill:#000000;stroke:#000000;stroke-width:1px"
       transform="matrix(0,0.25062421,-0.25062421,0,99.874994,99.625611)"
       id="polygon8897-2-9-6"
       points="400,180 400,220 220,400 180,400 " />
    <polygon
       style="fill:#000000;stroke:#000000;stroke-width:1px"
       transform="matrix(0,0.25062421,-0.25062421,0,200.12468,-0.62407794)"
       id="polygon8893-8-6-4"
       points="180,0 220,0 0,220 0,180 " />
    <polygon
       style="fill:#000000;stroke:#000000;stroke-width:1px"
       transform="matrix(0,0.25062421,-0.25062421,0,200.12468,-0.62407794)"
       id="polygon8899-2-2-9"
       points="380,400 400,380 400,400 " />
    <polygon
       style="fill:#000000;stroke:#000000;stroke-width:1px"
       transform="matrix(0,0.25062421,-0.25062421,0,200.12468,99.625611)"
       id="polygon8895-6-3-4-6"
       points="0,380 380,0 400,0 400,20 20,400 0,400 " />
    <polygon
       style="fill:#000000;stroke:#000000;stroke-width:1px"
       transform="matrix(0.25062421,0,0,0.25062421,200.12468,99.625612)"
       id="polygon8895-5-4"
       points="0,380 380,0 400,0 400,20 20,400 0,400 " />
    <polygon
       style="fill:#000000;stroke:#000000;stroke-width:1px"
       transform="matrix(0.25062421,0,0,0.25062421,300.37437,99.625612)"
       id="polygon8891-3-6-0"
       points="0,0 20,0 0,20 " />
    <polygon
       style="fill:#000000;stroke:#000000;stroke-width:1px"
       transform="matrix(0.25062421,0,0,0.25062421,300.37437,99.625612)"
       id="polygon8897-2-2-7"
       points="220,400 180,400 400,180 400,220 " />
    <polygon
       style="fill:#000000;stroke:#000000;stroke-width:1px"
       transform="matrix(0.25062421,0,0,0.25062421,200.12468,-0.62407247)"
       id="polygon8893-8-3-2"
       points="0,220 0,180 180,0 220,0 " />
    <polygon
       style="fill:#000000;stroke:#000000;stroke-width:1px"
       transform="matrix(0.25062421,0,0,0.25062421,200.12468,-0.62407247)"
       id="polygon8899-2-6-2"
       points="400,380 400,400 380,400 " />
    <polygon
       style="fill:#000000;stroke:#000000;stroke-width:1px"
       transform="matrix(0.25062421,0,0,0.25062421,300.37437,-0.62407247)"
       id="polygon8891-3-0-2-6"
       points="0,20 0,0 20,0 " />
    <polygon
       style="fill:#000000;stroke:#000000;stroke-width:1px"
       transform="matrix(0.25062421,0,0,0.25062421,300.37437,-0.62407247)"
       id="polygon8895-6-3-8-0"
       points="20,400 0,400 0,380 380,0 400,0 400,20 " />
    <polygon
       style="fill:#000000;stroke:#000000;stroke-width:1px"
       transform="matrix(0.25062421,0,0,0.25062421,300.37437,-0.62407247)"
       id="polygon8899-9-5-9-1"
       points="380,400 400,380 400,400 " />
    <polygon
       style="fill:#000000;stroke:#000000;stroke-width:1px"
       transform="matrix(0,0.25062421,-0.25062421,0,300.37436,-0.62408294)"
       id="polygon8891-8-0-9"
       points="0,20 0,0 20,0 " />
    <polygon
       style="fill:#000000;stroke:#000000;stroke-width:1px"
       transform="matrix(0,0.25062421,-0.25062421,0,300.37436,-0.62408294)"
       id="polygon8897-8-7-0"
       points="400,180 400,220 220,400 180,400 " />
    <polygon
       style="fill:#000000;stroke:#000000;stroke-width:1px"
       transform="matrix(0,0.25062421,-0.25062421,0,300.37436,99.625601)"
       id="polygon8891-3-3-9-1"
       points="20,0 0,20 0,0 " />
    <polygon
       style="fill:#000000;stroke:#000000;stroke-width:1px"
       transform="matrix(0,0.25062421,-0.25062421,0,300.37436,99.625601)"
       id="polygon8893-5-1-2-7"
       points="220,0 0,220 0,180 180,0 " />
    <polygon
       style="fill:#000000;stroke:#000000;stroke-width:1px"
       transform="matrix(0,0.25062421,-0.25062421,0,300.37436,99.625601)"
       id="polygon8899-9-2-9-1"
       points="400,400 380,400 400,380 " />
    <polygon
       style="fill:#000000;stroke:#000000;stroke-width:1px"
       transform="matrix(0,0.25062421,-0.25062421,0,400.62405,-0.62408794)"
       id="polygon8891-1-0-7-5"
       points="20,0 0,20 0,0 " />
    <polygon
       style="fill:#000000;stroke:#000000;stroke-width:1px"
       transform="matrix(0,0.25062421,-0.25062421,0,400.62405,-0.62408794)"
       id="polygon8895-7-8-6-7"
       points="0,380 380,0 400,0 400,20 20,400 0,400 " />
    <polygon
       style="fill:#000000;stroke:#000000;stroke-width:1px"
       transform="matrix(0,0.25062421,-0.25062421,0,400.62405,-0.62408794)"
       id="polygon8899-2-2-2-6"
       points="400,400 380,400 400,380 " />
    <polygon
       style="fill:#000000;stroke:#000000;stroke-width:1px"
       transform="matrix(0,0.25062421,-0.25062421,0,400.62405,99.625601)"
       id="polygon8891-3-0-6-9-7"
       points="0,0 20,0 0,20 " />
    <polygon
       style="fill:#000000;stroke:#000000;stroke-width:1px"
       transform="matrix(0,0.25062421,-0.25062421,0,400.62405,99.625601)"
       id="polygon8897-2-7-9-9-5"
       points="220,400 180,400 400,180 400,220 " />
  </g>
</svg>
