<?xml version="1.0" encoding="UTF-8" standalone="no"?>
<!--
  #%L
  xplan-webservices-workspaces - Modul zur Gruppierung aller Workspaces
  %%
  Copyright (C) 2008 - 2024 Freie und Hansestadt Hamburg, developed by lat/lon gesellschaft für raumbezogene Informationssysteme mbH
  %%
  This program is free software: you can redistribute it and/or modify
  it under the terms of the GNU Affero General Public License as published by
  the Free Software Foundation, either version 3 of the License, or
  (at your option) any later version.
  
  This program is distributed in the hope that it will be useful,
  but WITHOUT ANY WARRANTY; without even the implied warranty of
  MERCHANTABILITY or FITNESS FOR A PARTICULAR PURPOSE.  See the
  GNU General Public License for more details.
  
  You should have received a copy of the GNU Affero General Public License
  along with this program.  If not, see <http://www.gnu.org/licenses/>.
  #L%
  -->

<svg
   version="1.0"
   width="100%"
   height="100%"
   viewBox="-15 -10 100 100"
   id="svg2"
   xmlns="http://www.w3.org/2000/svg"
   xmlns:svg="http://www.w3.org/2000/svg"
   xmlns:rdf="http://www.w3.org/1999/02/22-rdf-syntax-ns#"
   xmlns:cc="http://creativecommons.org/ns#"
   xmlns:dc="http://purl.org/dc/elements/1.1/">
  <metadata
     id="metadata11">
    <rdf:RDF>
      <cc:Work
         rdf:about="">
        <dc:format>image/svg+xml</dc:format>
        <dc:type
           rdf:resource="http://purl.org/dc/dcmitype/StillImage" />
        <dc:title />
      </cc:Work>
    </rdf:RDF>
  </metadata>
  <defs
     id="defs4">
    <style
       type="text/css"
       id="style6" />
  </defs>
  <path
     d="m 17.600247,22.600247 c 9.610467,-9.607565 25.189035,-9.607565 34.799502,0 8.594243,-5.362343 19.816194,-3.646737 26.415743,4.038423 6.599547,7.685161 6.599547,19.037495 0,26.722656 -6.599549,7.68516 -17.8215,9.400766 -26.415743,4.038423 -9.610467,9.607565 -25.189035,9.607565 -34.799502,0 -8.5942435,5.362343 -19.8161941,3.646737 -26.4157429,-4.038423 -6.5995471,-7.685161 -6.5995471,-19.037495 0,-26.722656 6.5995488,-7.68516 17.8214994,-9.400766 26.4157429,-4.038423"
     id="path836"
     style="font-size:4px;opacity:0.998;fill:#4dae38;fill-opacity:1;stroke:#000000;stroke-width:2;stroke-linecap:square;stroke-miterlimit:4;stroke-dasharray:none;image-rendering:auto" />
  <path
     id="circle838"
     style="font-size:4px;fill:#000000;stroke:#000000;stroke-width:2.38095"
     d="M 38.809523,40 A 3.8095238,3.8095241 0 0 1 35,43.809524 3.8095238,3.8095241 0 0 1 31.190476,40 3.8095238,3.8095241 0 0 1 35,36.190476 3.8095238,3.8095241 0 0 1 38.809523,40 Z" />
</svg>
