<?xml version="1.0" encoding="UTF-8" standalone="no"?>
<!--
  #%L
  xplan-webservices-workspaces - Modul zur Gruppierung aller Workspaces
  %%
  Copyright (C) 2008 - 2024 Freie und Hansestadt Hamburg, developed by lat/lon gesellschaft für raumbezogene Informationssysteme mbH
  %%
  This program is free software: you can redistribute it and/or modify
  it under the terms of the GNU Affero General Public License as published by
  the Free Software Foundation, either version 3 of the License, or
  (at your option) any later version.
  
  This program is distributed in the hope that it will be useful,
  but WITHOUT ANY WARRANTY; without even the implied warranty of
  MERCHANTABILITY or FITNESS FOR A PARTICULAR PURPOSE.  See the
  GNU General Public License for more details.
  
  You should have received a copy of the GNU Affero General Public License
  along with this program.  If not, see <http://www.gnu.org/licenses/>.
  #L%
  -->

<!-- Created with Inkscape (http://www.inkscape.org/) -->

<svg
   version="1.0"
   width="100%"
   height="100%"
   viewBox="-5 -5 100 100"
   id="svg2"
   xml:space="preserve"
   xmlns="http://www.w3.org/2000/svg"
   xmlns:svg="http://www.w3.org/2000/svg"><defs
     id="defs4"><style
       type="text/css"
       id="style6" /></defs><rect
     style="opacity:0.829352;fill:#ffffff;fill-opacity:1;stroke:#000000;stroke-width:2.44254;stroke-dasharray:none;stroke-opacity:1"
     id="rect4128"
     width="49.309479"
     height="49.309475"
     x="18.079033"
     y="20.90922" /><path
     d="M 35.660191,57.340504 V 34.999537 h 7.695899 q 2.605938,0 3.977485,0.320027 1.920165,0.441943 3.276472,1.600138 1.767771,1.493461 2.636417,3.82509 0.883885,2.31639 0.883885,5.303313 0,2.544981 -0.594336,4.510864 -0.594337,1.965883 -1.523941,3.261232 -0.929604,1.28011 -2.04208,2.026841 -1.097237,0.731491 -2.666896,1.112477 -1.554419,0.380985 -3.58126,0.380985 z m 2.956445,-2.636417 h 4.769933 q 2.209714,0 3.459345,-0.411464 1.264871,-0.411464 2.011601,-1.158195 1.051519,-1.051519 1.630617,-2.81929 0.594336,-1.78301 0.594336,-4.312751 0,-3.505063 -1.158194,-5.37951 -1.142956,-1.889686 -2.788811,-2.529741 -1.188674,-0.457182 -3.825091,-0.457182 h -4.693736 z"
     id="path4064"
     style="font-size:31.2103px;font-family:Arial;-inkscape-font-specification:Arial;display:inline;opacity:0.829352;stroke:#000000;stroke-width:0.377953" /></svg>
