<?xml version="1.0" encoding="UTF-8" standalone="no"?>
<!--
  #%L
  xplan-webservices-workspaces - Modul zur Gruppierung aller Workspaces
  %%
  Copyright (C) 2008 - 2024 Freie und Hansestadt Hamburg, developed by lat/lon gesellschaft für raumbezogene Informationssysteme mbH
  %%
  This program is free software: you can redistribute it and/or modify
  it under the terms of the GNU Affero General Public License as published by
  the Free Software Foundation, either version 3 of the License, or
  (at your option) any later version.
  
  This program is distributed in the hope that it will be useful,
  but WITHOUT ANY WARRANTY; without even the implied warranty of
  MERCHANTABILITY or FITNESS FOR A PARTICULAR PURPOSE.  See the
  GNU General Public License for more details.
  
  You should have received a copy of the GNU Affero General Public License
  along with this program.  If not, see <http://www.gnu.org/licenses/>.
  #L%
  -->

<!-- Created with Inkscape (http://www.inkscape.org/) -->

<svg
   version="1.0"
   width="100%"
   height="100%"
   viewBox="-5 -3.5 100 100"
   id="svg2"
   xmlns="http://www.w3.org/2000/svg"
   xmlns:svg="http://www.w3.org/2000/svg">
  <defs
     id="defs4">
    <style
       type="text/css"
       id="style6" />
  </defs>
  <rect
     style="fill:#ffffff;stroke-width:1.02296"
     id="rect28952"
     width="99.044205"
     height="66.905617"
     x="-4.5221028"
     y="12.987454" />
  <g
     id="use29"
     transform="matrix(10.691591,0,0,10.691591,45,46.5)">
    <path
       id="rect20"
       style="fill:none;stroke:#000000;stroke-width:0.3"
       d="m -4.5,-3 h 9 v 6 h -9 z" />
    <path
       id="circle22"
       d="M 0.5,1.3 A 0.5,0.5 0 0 1 0,1.8 0.5,0.5 0 0 1 -0.5,1.3 0.5,0.5 0 0 1 0,0.79999995 0.5,0.5 0 0 1 0.5,1.3 Z" />
    <path
       id="circle24"
       d="M 1.5,2.3 A 0.5,0.5 0 0 1 1,2.8 0.5,0.5 0 0 1 0.5,2.3 0.5,0.5 0 0 1 1,1.8 0.5,0.5 0 0 1 1.5,2.3 Z" />
    <path
       id="circle26"
       d="M -0.5,2.3 A 0.5,0.5 0 0 1 -1,2.8 0.5,0.5 0 0 1 -1.5,2.3 0.5,0.5 0 0 1 -1,1.8 0.5,0.5 0 0 1 -0.5,2.3 Z" />
    <path
       id="circle28"
       d="m -2.3,-2.3 a 0.5,0.5 0 0 1 -0.5,0.5 0.5,0.5 0 0 1 -0.5,-0.5 0.5,0.5 0 0 1 0.5,-0.5 0.5,0.5 0 0 1 0.5,0.5 z" />
    <path
       id="circle30"
       d="M -1.3,-1.3 A 0.5,0.5 0 0 1 -1.8,-0.79999995 0.5,0.5 0 0 1 -2.3,-1.3 a 0.5,0.5 0 0 1 0.5,-0.5 0.5,0.5 0 0 1 0.5,0.5 z" />
    <path
       id="circle32"
       d="M -3.3,-1.3 A 0.5,0.5 0 0 1 -3.8,-0.79999995 0.5,0.5 0 0 1 -4.3,-1.3 a 0.5,0.5 0 0 1 0.5,-0.5 0.5,0.5 0 0 1 0.5,0.5 z" />
    <path
       id="circle34"
       d="M 3.3,-2.3 A 0.5,0.5 0 0 1 2.8,-1.8 0.5,0.5 0 0 1 2.3,-2.3 0.5,0.5 0 0 1 2.8,-2.8 0.5,0.5 0 0 1 3.3,-2.3 Z" />
    <path
       id="circle36"
       d="M 2.3,-1.3 A 0.5,0.5 0 0 1 1.8,-0.79999995 0.5,0.5 0 0 1 1.3,-1.3 0.5,0.5 0 0 1 1.8,-1.8 0.5,0.5 0 0 1 2.3,-1.3 Z" />
    <path
       id="circle38"
       d="M 4.3,-1.3 A 0.5,0.5 0 0 1 3.8,-0.79999995 0.5,0.5 0 0 1 3.3,-1.3 0.5,0.5 0 0 1 3.8,-1.8 0.5,0.5 0 0 1 4.3,-1.3 Z" />
  </g>
</svg>
