<?xml version="1.0" encoding="UTF-8" standalone="no"?>
<!--
  #%L
  xplan-workspaces - Modul zur Gruppierung aller Workspaces
  %%
  Copyright (C) 2008 - 2023 Freie und Hansestadt Hamburg, developed by lat/lon gesellschaft für raumbezogene Informationssysteme mbH
  %%
  This program is free software: you can redistribute it and/or modify
  it under the terms of the GNU Affero General Public License as published by
  the Free Software Foundation, either version 3 of the License, or
  (at your option) any later version.
  
  This program is distributed in the hope that it will be useful,
  but WITHOUT ANY WARRANTY; without even the implied warranty of
  MERCHANTABILITY or FITNESS FOR A PARTICULAR PURPOSE.  See the
  GNU General Public License for more details.
  
  You should have received a copy of the GNU Affero General Public License
  along with this program.  If not, see <http://www.gnu.org/licenses/>.
  #L%
  -->

<!-- Created with Inkscape (http://www.inkscape.org/) -->

<svg
   version="1.0"
   width="100%"
   height="100%"
   viewBox="-5 -3.5 100 100"
   id="svg2"
   xmlns="http://www.w3.org/2000/svg"
   xmlns:svg="http://www.w3.org/2000/svg">
  <defs
     id="defs4">
    <style
       type="text/css"
       id="style6" />
  </defs>
  <rect
     style="fill:#ffffff;stroke-width:11.1557"
     id="rect33795"
     width="99.044205"
     height="67.622459"
     x="-4.5221028"
     y="12.629033" />
  <g
     id="use23"
     transform="matrix(10.460899,0,0,10.460899,45,46.5)">
    <path
       id="rect17"
       style="fill:none;stroke:#000000;stroke-width:0.5;stroke-linecap:round"
       d="m -4.5,-3 h 9 v 6 h -9 z" />
    <path
       d="m -4,-1.75 c 0.6666667,-0.5 1.3333333,-0.5 2,0 0.6666667,0.5 1.33333333,0.5 2,0 0.66666667,-0.5 1.3333333,-0.5 2,0 0.6666667,0.5 1.3333333,0.5 2,0"
       id="path20"
       style="fill:none;stroke:#000000;stroke-width:0.25;stroke-linecap:round" />
    <path
       d="m -4,-1 c 0.6666667,-0.5 1.3333333,-0.5 2,0 0.6666667,0.5 1.33333333,0.5 2,0 0.66666667,-0.5 1.3333333,-0.5 2,0 0.6666667,0.5 1.3333333,0.5 2,0"
       id="path22"
       style="fill:none;stroke:#000000;stroke-width:0.25;stroke-linecap:round" />
    <path
       d="m -4,-0.25 c 0.6666667,-0.5 1.3333333,-0.5 2,0 0.6666667,0.5 1.33333333,0.5 2,0 0.66666667,-0.5 1.3333333,-0.5 2,0 0.6666667,0.5 1.3333333,0.5 2,0"
       id="path24"
       style="fill:none;stroke:#000000;stroke-width:0.25;stroke-linecap:round" />
    <path
       d="M -4,0.5 C -3.3333333,0 -2.6666667,0 -2,0.5 -1.3333333,1 -0.66666667,1 0,0.5 0.66666667,0 1.3333333,0 2,0.5 2.6666667,1 3.3333333,1 4,0.5"
       id="path26"
       style="fill:none;stroke:#000000;stroke-width:0.25;stroke-linecap:round" />
    <path
       d="m -4,1.25 c 0.6666667,-0.5 1.3333333,-0.5 2,0 0.6666667,0.5 1.33333333,0.5 2,0 0.66666667,-0.5 1.3333333,-0.5 2,0 0.6666667,0.5 1.3333333,0.5 2,0"
       id="path28"
       style="fill:none;stroke:#000000;stroke-width:0.25;stroke-linecap:round" />
    <path
       d="m -4,2 c 0.6666667,-0.5 1.3333333,-0.5 2,0 0.6666667,0.5 1.33333333,0.5 2,0 0.66666667,-0.5 1.3333333,-0.5 2,0 0.6666667,0.5 1.3333333,0.5 2,0"
       id="path30"
       style="fill:none;stroke:#000000;stroke-width:0.25;stroke-linecap:round" />
  </g>
</svg>
