<?xml version="1.0" encoding="UTF-8" standalone="no"?>
<!--
  #%L
  xplan-webservices-workspaces - Modul zur Gruppierung aller Workspaces
  %%
  Copyright (C) 2008 - 2024 Freie und Hansestadt Hamburg, developed by lat/lon gesellschaft für raumbezogene Informationssysteme mbH
  %%
  This program is free software: you can redistribute it and/or modify
  it under the terms of the GNU Affero General Public License as published by
  the Free Software Foundation, either version 3 of the License, or
  (at your option) any later version.
  
  This program is distributed in the hope that it will be useful,
  but WITHOUT ANY WARRANTY; without even the implied warranty of
  MERCHANTABILITY or FITNESS FOR A PARTICULAR PURPOSE.  See the
  GNU General Public License for more details.
  
  You should have received a copy of the GNU Affero General Public License
  along with this program.  If not, see <http://www.gnu.org/licenses/>.
  #L%
  -->

<!-- Created with Inkscape (http://www.inkscape.org/) -->

<svg
   version="1.0"
   width="100%"
   height="100%"
   viewBox="-5 -3.5 100 100"
   id="svg2"
   xmlns="http://www.w3.org/2000/svg"
   xmlns:svg="http://www.w3.org/2000/svg">
  <defs
     id="defs4">
    <style
       type="text/css"
       id="style6" />
  </defs>
  <g
     id="use13"
     transform="matrix(10.482208,0,0,10.482208,45,46.5)">
    <g
       aria-label="Gar"
       id="text10"
       style="font-weight:100;font-size:4px;text-anchor:middle">
      <path
         d="M -1.1171875,1.2519531 V 0.23046875 H -1.8613281 V 0.0703125 h 0.93749997 V 1.3457031 Q -1.1328125,1.4492187 -1.3828125,1.5 q -0.25,0.052734 -0.5351562,0.056641 -0.6328126,0 -0.9882813,-0.4003906 -0.3574219,-0.3984375 -0.3574219,-1.11132813 0,-0.71484374 0.3574219,-1.11523437 0.3554687,-0.3984375 0.9882813,-0.3984375 0.2617187,0 0.4941406,0.052734 0.234375,0.056641 0.42968747,0.1660156 v 0.1894531 q -0.19726557,-0.109375 -0.42187497,-0.1660156 -0.2226563,-0.054687 -0.46875,-0.054687 -0.5878907,0 -0.8828125,0.33398437 -0.2949219,0.33203126 -0.2949219,0.9921875 0,0.66992188 0.2949219,1.00781253 0.2949218,0.3398437 0.8828125,0.3398437 0.2402344,0 0.4296875,-0.033203 0.1875,-0.035156 0.3378906,-0.1074219 z"
         id="path14" />
      <path
         d="m 0.83007813,0.265625 q -0.43359375,0 -0.625,0.15429688 -0.19140625,0.15429687 -0.19140625,0.45117187 0,0.28906245 0.15820312,0.41015625 0.15820313,0.1210937 0.375,0.1210937 0.41015625,0 0.5898437,-0.3476562 Q 1.3183594,0.70703125 1.3183594,0.40039063 V 0.265625 Z M 1.5,0.25195313 V 1.5 H 1.3222656 V 0.90625 Q 1.171875,1.3417969 0.92382813,1.4609375 0.7265625,1.5566406 0.53125,1.5566406 q -0.32617187,0 -0.51367187,-0.1738281 -0.1875,-0.1757813 -0.1875,-0.515625 0,-0.33984375 0.24414062,-0.54296875 Q 0.31835938,0.11914062 0.87304688,0.11914062 H 1.3183594 V 0.08398437 q 0,-0.29101562 -0.1660157,-0.47851562 -0.16406245,-0.1875 -0.5429687,-0.1875 -0.1875,0 -0.3828125,0.0703125 -0.125,0.0449219 -0.32421875,0.18164062 V -0.5234375 q 0.17382812,-0.10742187 0.32421875,-0.15234375 0.21875,-0.0644531 0.41992187,-0.0644531 0.38671873,0 0.63671873,0.234375 Q 1.5,-0.3046875 1.5,0.25195313 Z"
         id="path16" />
      <path
         d="m 3.59375,-0.53320312 q -0.042969,-0.0214844 -0.1171875,-0.0371094 -0.066406,-0.0117188 -0.1679687,-0.0117188 -0.3320313,0 -0.5507813,0.24609375 -0.171875,0.19921875 -0.171875,0.68359375 V 1.5 H 2.4101563 v -2.1875 h 0.1757812 v 0.41015625 q 0.087891,-0.17578125 0.2460938,-0.296875 0.21875,-0.16601562 0.515625,-0.16601562 0.076172,0 0.1328125,0.005859 0.058594,0 0.1132812,0.0136719 z"
         id="path18" />
    </g>
  </g>
</svg>
