<?xml version="1.0" encoding="UTF-8" standalone="no"?>
<!--
  #%L
  xplan-webservices-workspaces - Modul zur Gruppierung aller Workspaces
  %%
  Copyright (C) 2008 - 2024 Freie und Hansestadt Hamburg, developed by lat/lon gesellschaft für raumbezogene Informationssysteme mbH
  %%
  This program is free software: you can redistribute it and/or modify
  it under the terms of the GNU Affero General Public License as published by
  the Free Software Foundation, either version 3 of the License, or
  (at your option) any later version.
  
  This program is distributed in the hope that it will be useful,
  but WITHOUT ANY WARRANTY; without even the implied warranty of
  MERCHANTABILITY or FITNESS FOR A PARTICULAR PURPOSE.  See the
  GNU General Public License for more details.
  
  You should have received a copy of the GNU Affero General Public License
  along with this program.  If not, see <http://www.gnu.org/licenses/>.
  #L%
  -->

<!-- Created with Inkscape (http://www.inkscape.org/) -->

<svg
   version="1.0"
   width="100%"
   height="100%"
   viewBox="-5 -3.5 100 100"
   id="svg2"
   xmlns="http://www.w3.org/2000/svg"
   xmlns:svg="http://www.w3.org/2000/svg">
  <defs
     id="defs4">
    <style
       type="text/css"
       id="style6" />
  </defs>
  <g
     id="use13"
     transform="matrix(9.5020243,0,0,9.5020243,45,46.5)">
    <g
       aria-label="Golf"
       id="text10"
       style="font-weight:100;font-size:4px;text-anchor:middle">
      <path
         d="M -1.5527344,1.2519531 V 0.23046875 H -2.296875 V 0.0703125 h 0.9375 V 1.3457031 Q -1.5683594,1.4492187 -1.8183594,1.5 q -0.25,0.052734 -0.5351562,0.056641 -0.6328125,0 -0.9882813,-0.4003906 -0.3574219,-0.3984375 -0.3574219,-1.11132813 0,-0.71484374 0.3574219,-1.11523437 0.3554688,-0.3984375 0.9882813,-0.3984375 0.2617187,0 0.4941406,0.052734 Q -1.625,-1.359375 -1.4296875,-1.25 v 0.1894531 q -0.1972656,-0.109375 -0.421875,-0.1660156 -0.2226563,-0.054687 -0.46875,-0.054687 -0.5878906,0 -0.8828125,0.33398437 -0.2949219,0.33203126 -0.2949219,0.9921875 0,0.66992188 0.2949219,1.00781253 0.2949219,0.3398437 0.8828125,0.3398437 0.2402344,0 0.4296875,-0.033203 0.1875,-0.035156 0.3378906,-0.1074219 z"
         id="path14" />
      <path
         d="m 0.8203125,-0.3125 q -0.19335938,-0.26953125 -0.52734375,-0.26953125 -0.33398437,0 -0.52734375,0.26757812 -0.1953125,0.26562501 -0.1953125,0.71875001 0,0.46484375 0.19335937,0.73046872 0.19335938,0.2675781 0.52929688,0.2675781 0.33398437,0 0.52734375,-0.2675781 Q 1.015625,0.86523438 1.015625,0.40429688 1.015625,-0.04296875 0.8203125,-0.3125 Z M 0.29101563,-0.74023437 q 0.41796874,0 0.66015625,0.31249999 0.24414062,0.31445313 0.24414062,0.83398438 0,0.53710938 -0.24414062,0.8476562 -0.24218751,0.3125 -0.66015625,0.3125 -0.421875,0 -0.66601563,-0.3105468 -0.2421875,-0.3105469 -0.2421875,-0.8496094 0,-0.52539062 0.24414062,-0.8359375 0.24414063,-0.31054687 0.66406251,-0.31054687 z"
         id="path16" />
      <path
         d="M 1.9667969,-1.5390625 H 2.1464844 V 1.5 H 1.9667969 Z"
         id="path18" />
      <path
         d="m 4.0195312,-1.5390625 v 0.1523438 H 3.765625 q -0.1992187,0 -0.3046875,0.1035156 Q 3.3320313,-1.15625 3.3320313,-0.88085938 V -0.6875 H 3.921875 v 0.15234375 H 3.3320313 V 1.5 H 3.1503906 v -2.03515625 h -0.34375 V -0.6875 h 0.34375 v -0.15234375 q 0,-0.36523435 0.1660157,-0.53124995 0.1640625,-0.1679688 0.453125,-0.1679688 z"
         id="path20" />
    </g>
  </g>
</svg>
