<?xml version="1.0" encoding="UTF-8" standalone="no"?>
<!--
  #%L
  xplan-webservices-workspaces - Modul zur Gruppierung aller Workspaces
  %%
  Copyright (C) 2008 - 2024 Freie und Hansestadt Hamburg, developed by lat/lon gesellschaft für raumbezogene Informationssysteme mbH
  %%
  This program is free software: you can redistribute it and/or modify
  it under the terms of the GNU Affero General Public License as published by
  the Free Software Foundation, either version 3 of the License, or
  (at your option) any later version.
  
  This program is distributed in the hope that it will be useful,
  but WITHOUT ANY WARRANTY; without even the implied warranty of
  MERCHANTABILITY or FITNESS FOR A PARTICULAR PURPOSE.  See the
  GNU General Public License for more details.
  
  You should have received a copy of the GNU Affero General Public License
  along with this program.  If not, see <http://www.gnu.org/licenses/>.
  #L%
  -->

<svg
   version="1.0"
   width="100%"
   height="100%"
   viewBox="-5 -5 100 100"
   id="svg2"
   xmlns="http://www.w3.org/2000/svg"
   xmlns:svg="http://www.w3.org/2000/svg"
   xmlns:rdf="http://www.w3.org/1999/02/22-rdf-syntax-ns#"
   xmlns:cc="http://creativecommons.org/ns#"
   xmlns:dc="http://purl.org/dc/elements/1.1/">
  <metadata
     id="metadata10">
    <rdf:RDF>
      <cc:Work
         rdf:about="">
        <dc:format>image/svg+xml</dc:format>
        <dc:type
           rdf:resource="http://purl.org/dc/dcmitype/StillImage" />
      </cc:Work>
    </rdf:RDF>
  </metadata>
  <defs
     id="defs4">
    <style
       type="text/css"
       id="style6" />
  </defs>
  <g
     id="use13"
     transform="matrix(10.319023,0,0,10.319023,43.22991,44.526373)"
     style="stroke-width:0.1908;stroke-miterlimit:4;stroke-dasharray:none">
    <g
       aria-label="NLP"
       id="text858"
       style="font-weight:100;font-size:4px;text-anchor:middle;fill:#000000;stroke:none;stroke-width:0.1908;stroke-miterlimit:4;stroke-dasharray:none">
      <path
         d="M -0.8244557,1.5 H -1.3029713 L -2.6818776,-1.1015625 V 1.5 h -0.3613281 v -2.9082031 h 0.5996094 l 1.2578125,2.37499998 V -1.4082031 h 0.3613281 z"
         style="font-weight:100;font-size:4px;text-anchor:middle;fill:#000000;stroke:none;stroke-width:0.1908;stroke-miterlimit:4;stroke-dasharray:none"
         id="path862" />
      <path
         d="m 1.4072266,1.5 h -1.83984379 v -2.9082031 h 0.38671875 V 1.15625 H 1.4072266 Z"
         style="font-weight:100;font-size:4px;text-anchor:middle;fill:#000000;stroke:none;stroke-width:0.1908;stroke-miterlimit:4;stroke-dasharray:none"
         id="path864" />
      <path
         d="m 3.6962891,-0.52929687 q 0,0.19335937 -0.068359,0.359375 -0.066406,0.16406249 -0.1875,0.28515624 Q 3.2900391,0.265625 3.0849609,0.34179688 2.8798828,0.41601563 2.5673828,0.41601563 H 2.1806641 V 1.5 H 1.7939453 v -2.9082031 h 0.7890625 q 0.2617188,0 0.4433594,0.044922 0.1816406,0.042969 0.3222656,0.1367187 0.1660156,0.1113281 0.2558594,0.27734375 0.091797,0.16601563 0.091797,0.41992178 z m -0.4023438,0.009766 q 0,-0.15039062 -0.052734,-0.26171875 Q 3.1884773,-0.89257775 3.0810551,-0.96289025 2.9873051,-1.0234371 2.8662113,-1.0488276 2.7470707,-1.0761716 2.563477,-1.0761716 H 2.1806641 v 1.1621094 h 0.3261718 q 0.234375,0 0.3808594,-0.04101563 0.1464844,-0.04296874 0.2382813,-0.13476562 0.091797,-0.09375 0.1289062,-0.19726563 0.039063,-0.10351562 0.039063,-0.23242179 z"
         style="font-weight:100;font-size:4px;text-anchor:middle;fill:#000000;stroke:none;stroke-width:0.1908;stroke-miterlimit:4;stroke-dasharray:none"
         id="path866" />
    </g>
  </g>
  <path
     id="path883"
     style="fill:none;fill-rule:evenodd;stroke:#000000;stroke-width:4;stroke-miterlimit:4;stroke-dasharray:none"
     d="M 86.496977,45 A 41.496976,41.496976 0 0 1 44.999999,86.496976 41.496976,41.496976 0 0 1 3.503023,45 41.496976,41.496976 0 0 1 44.999999,3.5030241 41.496976,41.496976 0 0 1 86.496977,45 Z" />
</svg>
