<?xml version="1.0" encoding="UTF-8" standalone="no"?>
<!--
  #%L
  xplan-webservices-workspaces - Modul zur Gruppierung aller Workspaces
  %%
  Copyright (C) 2008 - 2024 Freie und Hansestadt Hamburg, developed by lat/lon gesellschaft für raumbezogene Informationssysteme mbH
  %%
  This program is free software: you can redistribute it and/or modify
  it under the terms of the GNU Affero General Public License as published by
  the Free Software Foundation, either version 3 of the License, or
  (at your option) any later version.
  
  This program is distributed in the hope that it will be useful,
  but WITHOUT ANY WARRANTY; without even the implied warranty of
  MERCHANTABILITY or FITNESS FOR A PARTICULAR PURPOSE.  See the
  GNU General Public License for more details.
  
  You should have received a copy of the GNU Affero General Public License
  along with this program.  If not, see <http://www.gnu.org/licenses/>.
  #L%
  -->

<svg
   version="1.0"
   width="100%"
   height="100%"
   viewBox="-1.5 -4 100 100"
   id="svg2"
   xmlns="http://www.w3.org/2000/svg"
   xmlns:svg="http://www.w3.org/2000/svg"
   xmlns:rdf="http://www.w3.org/1999/02/22-rdf-syntax-ns#"
   xmlns:cc="http://creativecommons.org/ns#"
   xmlns:dc="http://purl.org/dc/elements/1.1/">
  <metadata
     id="metadata11">
    <rdf:RDF>
      <cc:Work
         rdf:about="">
        <dc:format>image/svg+xml</dc:format>
        <dc:type
           rdf:resource="http://purl.org/dc/dcmitype/StillImage" />
      </cc:Work>
    </rdf:RDF>
  </metadata>
  <defs
     id="defs4">
    <style
       type="text/css"
       id="style6" />
  </defs>
  <g
     id="use15"
     transform="matrix(29.292515,0,0,28.226374,48.5,94.792309)">
    <path
       id="circle838"
       style="fill:#000000;stroke:none;stroke-width:1.39108"
       d="m -0.17069207,-0.84291057 a 0.6827683,0.70855716 0 0 1 -0.6827683,0.70855723 0.6827683,0.70855716 0 0 1 -0.68276823,-0.70855723 0.6827683,0.70855716 0 0 1 0.68276823,-0.70855713 0.6827683,0.70855716 0 0 1 0.6827683,0.70855713 z" />
    <path
       id="circle840"
       style="fill:#000000;stroke:none;stroke-width:1.39108"
       d="M 1.5362286,-2.6143035 A 0.68276828,0.70855718 0 0 1 0.85346026,-1.9057463 0.68276828,0.70855718 0 0 1 0.17069199,-2.6143035 0.68276828,0.70855718 0 0 1 0.85346026,-3.3228607 0.68276828,0.70855718 0 0 1 1.5362286,-2.6143035 Z" />
  </g>
</svg>
